<mxfile host="app.diagrams.net" modified="2024-06-07T15:43:09.808Z" agent="Mozilla/5.0 (X11; Linux x86_64; rv:125.0) Gecko/20100101 Firefox/125.0" etag="hAyWVMkPS8MvUyfKiPvt" version="24.4.0" type="device">
  <diagram id="C5RBs43oDa-KdzZeNtuy" name="Page-1">
    <mxGraphModel dx="1255" dy="781" grid="1" gridSize="10" guides="1" tooltips="1" connect="1" arrows="1" fold="1" page="1" pageScale="1" pageWidth="827" pageHeight="1169" math="0" shadow="0">
      <root>
        <mxCell id="WIyWlLk6GJQsqaUBKTNV-0" />
        <mxCell id="WIyWlLk6GJQsqaUBKTNV-1" parent="WIyWlLk6GJQsqaUBKTNV-0" />
        <mxCell id="amC7VP1BXG8_0cPZd53P-6" style="edgeStyle=orthogonalEdgeStyle;rounded=0;orthogonalLoop=1;jettySize=auto;html=1;entryX=0.5;entryY=0;entryDx=0;entryDy=0;" edge="1" parent="WIyWlLk6GJQsqaUBKTNV-1" source="amC7VP1BXG8_0cPZd53P-0" target="amC7VP1BXG8_0cPZd53P-4">
          <mxGeometry relative="1" as="geometry" />
        </mxCell>
        <mxCell id="amC7VP1BXG8_0cPZd53P-7" value="t" style="edgeLabel;html=1;align=center;verticalAlign=middle;resizable=0;points=[];" vertex="1" connectable="0" parent="amC7VP1BXG8_0cPZd53P-6">
          <mxGeometry x="0.0424" y="3" relative="1" as="geometry">
            <mxPoint as="offset" />
          </mxGeometry>
        </mxCell>
        <mxCell id="amC7VP1BXG8_0cPZd53P-0" value="&lt;div align=&quot;left&quot;&gt;&lt;b&gt;&lt;font face=&quot;Lucida Console&quot;&gt;init:&lt;/font&gt;&lt;/b&gt;&lt;/div&gt;&lt;div align=&quot;left&quot;&gt;&lt;font face=&quot;Lucida Console&quot;&gt;I &amp;lt;- &#39;0&lt;/font&gt;&lt;/div&gt;&lt;div align=&quot;left&quot;&gt;&lt;font face=&quot;Lucida Console&quot;&gt;BLOCK_IDX &amp;lt;- &#39;0&lt;/font&gt;&lt;/div&gt;&lt;div align=&quot;left&quot;&gt;&lt;font face=&quot;Lucida Console&quot;&gt;(DECL . BLOCKS) &amp;lt;- prog&lt;br&gt;&lt;/font&gt;&lt;/div&gt;&lt;div align=&quot;left&quot;&gt;&lt;font face=&quot;bQ9gixf5_bkwfU0nSOTF&quot;&gt;&lt;br&gt;&lt;/font&gt;&lt;/div&gt;" style="rounded=0;whiteSpace=wrap;html=1;align=left;verticalAlign=top;" vertex="1" parent="WIyWlLk6GJQsqaUBKTNV-1">
          <mxGeometry x="240" y="240" width="170" height="70" as="geometry" />
        </mxCell>
        <mxCell id="amC7VP1BXG8_0cPZd53P-17" style="edgeStyle=orthogonalEdgeStyle;rounded=0;orthogonalLoop=1;jettySize=auto;html=1;entryX=0.5;entryY=0;entryDx=0;entryDy=0;" edge="1" parent="WIyWlLk6GJQsqaUBKTNV-1" source="amC7VP1BXG8_0cPZd53P-3" target="amC7VP1BXG8_0cPZd53P-16">
          <mxGeometry relative="1" as="geometry" />
        </mxCell>
        <mxCell id="amC7VP1BXG8_0cPZd53P-3" value="&lt;div align=&quot;left&quot;&gt;&lt;b&gt;&lt;font face=&quot;Lucida Console&quot;&gt;find_entry:&lt;/font&gt;&lt;/b&gt;&lt;/div&gt;&lt;div&gt;&lt;font face=&quot;Lucida Console&quot;&gt;// traverse BLOCKS&lt;br&gt;&lt;/font&gt;&lt;/div&gt;&lt;div align=&quot;left&quot;&gt;&lt;font face=&quot;bQ9gixf5_bkwfU0nSOTF&quot;&gt;&lt;br&gt;&lt;/font&gt;&lt;/div&gt;" style="rounded=0;whiteSpace=wrap;html=1;align=left;verticalAlign=top;" vertex="1" parent="WIyWlLk6GJQsqaUBKTNV-1">
          <mxGeometry x="240" y="440" width="170" height="60" as="geometry" />
        </mxCell>
        <mxCell id="amC7VP1BXG8_0cPZd53P-8" style="edgeStyle=orthogonalEdgeStyle;rounded=0;orthogonalLoop=1;jettySize=auto;html=1;entryX=0.5;entryY=0;entryDx=0;entryDy=0;" edge="1" parent="WIyWlLk6GJQsqaUBKTNV-1" source="amC7VP1BXG8_0cPZd53P-4" target="amC7VP1BXG8_0cPZd53P-3">
          <mxGeometry relative="1" as="geometry" />
        </mxCell>
        <mxCell id="amC7VP1BXG8_0cPZd53P-4" value="&lt;font face=&quot;Lucida Console&quot;&gt;BLOCKSREV = &#39;nil&lt;br&gt;&lt;/font&gt;" style="ellipse;whiteSpace=wrap;html=1;" vertex="1" parent="WIyWlLk6GJQsqaUBKTNV-1">
          <mxGeometry x="260" y="360" width="130" height="40" as="geometry" />
        </mxCell>
        <mxCell id="amC7VP1BXG8_0cPZd53P-13" style="edgeStyle=orthogonalEdgeStyle;rounded=0;orthogonalLoop=1;jettySize=auto;html=1;entryX=1;entryY=0.5;entryDx=0;entryDy=0;" edge="1" parent="WIyWlLk6GJQsqaUBKTNV-1" source="amC7VP1BXG8_0cPZd53P-11" target="amC7VP1BXG8_0cPZd53P-4">
          <mxGeometry relative="1" as="geometry">
            <Array as="points">
              <mxPoint x="605" y="380" />
            </Array>
          </mxGeometry>
        </mxCell>
        <mxCell id="amC7VP1BXG8_0cPZd53P-14" value="f" style="edgeLabel;html=1;align=center;verticalAlign=middle;resizable=0;points=[];" vertex="1" connectable="0" parent="amC7VP1BXG8_0cPZd53P-13">
          <mxGeometry x="0.7875" y="1" relative="1" as="geometry">
            <mxPoint x="-9" y="-11" as="offset" />
          </mxGeometry>
        </mxCell>
        <mxCell id="amC7VP1BXG8_0cPZd53P-11" value="&lt;div align=&quot;left&quot;&gt;&lt;b&gt;&lt;font face=&quot;Lucida Console&quot;&gt;find_entry1:&lt;/font&gt;&lt;/b&gt;&lt;/div&gt;&lt;div&gt;&lt;font face=&quot;Lucida Console&quot;&gt;// build BLOCKSREV&lt;/font&gt;&lt;/div&gt;&lt;div&gt;&lt;font face=&quot;Lucida Console&quot;&gt;// increment I&lt;br&gt;&lt;/font&gt;&lt;/div&gt;" style="rounded=0;whiteSpace=wrap;html=1;align=left;verticalAlign=top;" vertex="1" parent="WIyWlLk6GJQsqaUBKTNV-1">
          <mxGeometry x="520" y="440" width="170" height="60" as="geometry" />
        </mxCell>
        <mxCell id="amC7VP1BXG8_0cPZd53P-25" style="edgeStyle=orthogonalEdgeStyle;rounded=0;orthogonalLoop=1;jettySize=auto;html=1;entryX=0.5;entryY=0;entryDx=0;entryDy=0;" edge="1" parent="WIyWlLk6GJQsqaUBKTNV-1" source="amC7VP1BXG8_0cPZd53P-15" target="amC7VP1BXG8_0cPZd53P-24">
          <mxGeometry relative="1" as="geometry" />
        </mxCell>
        <mxCell id="amC7VP1BXG8_0cPZd53P-26" value="t" style="edgeLabel;html=1;align=center;verticalAlign=middle;resizable=0;points=[];" vertex="1" connectable="0" parent="amC7VP1BXG8_0cPZd53P-25">
          <mxGeometry x="0.3232" y="1" relative="1" as="geometry">
            <mxPoint x="4" as="offset" />
          </mxGeometry>
        </mxCell>
        <mxCell id="amC7VP1BXG8_0cPZd53P-15" value="&lt;div align=&quot;left&quot;&gt;&lt;b&gt;&lt;font face=&quot;Lucida Console&quot;&gt;found_entry:&lt;/font&gt;&lt;/b&gt;&lt;/div&gt;&lt;div&gt;&lt;font face=&quot;Lucida Console&quot;&gt;// save current block&lt;/font&gt;&lt;/div&gt;&lt;div&gt;&lt;font face=&quot;Lucida Console&quot;&gt;// save block IDX&lt;br&gt;&lt;/font&gt;&lt;/div&gt;&lt;div align=&quot;left&quot;&gt;&lt;font face=&quot;bQ9gixf5_bkwfU0nSOTF&quot;&gt;&lt;br&gt;&lt;/font&gt;&lt;/div&gt;" style="rounded=0;whiteSpace=wrap;html=1;align=left;verticalAlign=top;" vertex="1" parent="WIyWlLk6GJQsqaUBKTNV-1">
          <mxGeometry x="240" y="640" width="170" height="60" as="geometry" />
        </mxCell>
        <mxCell id="amC7VP1BXG8_0cPZd53P-18" style="edgeStyle=orthogonalEdgeStyle;rounded=0;orthogonalLoop=1;jettySize=auto;html=1;entryX=0.5;entryY=0;entryDx=0;entryDy=0;" edge="1" parent="WIyWlLk6GJQsqaUBKTNV-1" source="amC7VP1BXG8_0cPZd53P-16" target="amC7VP1BXG8_0cPZd53P-15">
          <mxGeometry relative="1" as="geometry" />
        </mxCell>
        <mxCell id="amC7VP1BXG8_0cPZd53P-21" value="t" style="edgeLabel;html=1;align=center;verticalAlign=middle;resizable=0;points=[];" vertex="1" connectable="0" parent="amC7VP1BXG8_0cPZd53P-18">
          <mxGeometry x="-0.4424" y="-1" relative="1" as="geometry">
            <mxPoint x="6" y="-4" as="offset" />
          </mxGeometry>
        </mxCell>
        <mxCell id="amC7VP1BXG8_0cPZd53P-19" style="edgeStyle=orthogonalEdgeStyle;rounded=0;orthogonalLoop=1;jettySize=auto;html=1;entryX=0.5;entryY=1;entryDx=0;entryDy=0;" edge="1" parent="WIyWlLk6GJQsqaUBKTNV-1" source="amC7VP1BXG8_0cPZd53P-16" target="amC7VP1BXG8_0cPZd53P-11">
          <mxGeometry relative="1" as="geometry" />
        </mxCell>
        <mxCell id="amC7VP1BXG8_0cPZd53P-20" value="f" style="edgeLabel;html=1;align=center;verticalAlign=middle;resizable=0;points=[];" vertex="1" connectable="0" parent="amC7VP1BXG8_0cPZd53P-19">
          <mxGeometry x="-0.9141" y="-2" relative="1" as="geometry">
            <mxPoint x="-2" y="-12" as="offset" />
          </mxGeometry>
        </mxCell>
        <mxCell id="amC7VP1BXG8_0cPZd53P-16" value="&lt;font face=&quot;Lucida Console&quot;&gt;TMP_FROM = &#39;ENTRY&lt;/font&gt;" style="shape=hexagon;perimeter=hexagonPerimeter2;whiteSpace=wrap;html=1;fixedSize=1;" vertex="1" parent="WIyWlLk6GJQsqaUBKTNV-1">
          <mxGeometry x="260" y="550" width="130" height="40" as="geometry" />
        </mxCell>
        <mxCell id="amC7VP1BXG8_0cPZd53P-29" style="edgeStyle=orthogonalEdgeStyle;rounded=0;orthogonalLoop=1;jettySize=auto;html=1;entryX=0;entryY=0.5;entryDx=0;entryDy=0;" edge="1" parent="WIyWlLk6GJQsqaUBKTNV-1" source="amC7VP1BXG8_0cPZd53P-22" target="amC7VP1BXG8_0cPZd53P-28">
          <mxGeometry relative="1" as="geometry" />
        </mxCell>
        <mxCell id="amC7VP1BXG8_0cPZd53P-22" value="&lt;div align=&quot;left&quot;&gt;&lt;b&gt;&lt;font face=&quot;Lucida Console&quot;&gt;found_entry1:&lt;/font&gt;&lt;/b&gt;&lt;/div&gt;&lt;div&gt;&lt;font face=&quot;Lucida Console&quot;&gt;// put BLOCKSREV back&lt;/font&gt;&lt;/div&gt;&lt;div&gt;&lt;font face=&quot;Lucida Console&quot;&gt;// on BLOCKS.&lt;/font&gt;&lt;/div&gt;&lt;div&gt;&lt;font face=&quot;Lucida Console&quot;&gt;// Decrement I&lt;br&gt;&lt;/font&gt;&lt;/div&gt;&lt;div align=&quot;left&quot;&gt;&lt;font face=&quot;bQ9gixf5_bkwfU0nSOTF&quot;&gt;&lt;br&gt;&lt;/font&gt;&lt;/div&gt;" style="rounded=0;whiteSpace=wrap;html=1;align=left;verticalAlign=top;" vertex="1" parent="WIyWlLk6GJQsqaUBKTNV-1">
          <mxGeometry x="240" y="800" width="170" height="70" as="geometry" />
        </mxCell>
        <mxCell id="amC7VP1BXG8_0cPZd53P-27" style="edgeStyle=orthogonalEdgeStyle;rounded=0;orthogonalLoop=1;jettySize=auto;html=1;entryX=0.5;entryY=0;entryDx=0;entryDy=0;" edge="1" parent="WIyWlLk6GJQsqaUBKTNV-1" source="amC7VP1BXG8_0cPZd53P-24" target="amC7VP1BXG8_0cPZd53P-22">
          <mxGeometry relative="1" as="geometry" />
        </mxCell>
        <mxCell id="amC7VP1BXG8_0cPZd53P-24" value="&lt;font face=&quot;Lucida Console&quot;&gt;I = BLOCK_IDX&lt;br&gt;&lt;/font&gt;" style="ellipse;whiteSpace=wrap;html=1;" vertex="1" parent="WIyWlLk6GJQsqaUBKTNV-1">
          <mxGeometry x="270" y="730" width="110" height="40" as="geometry" />
        </mxCell>
        <mxCell id="amC7VP1BXG8_0cPZd53P-30" style="edgeStyle=orthogonalEdgeStyle;rounded=0;orthogonalLoop=1;jettySize=auto;html=1;entryX=1;entryY=0.5;entryDx=0;entryDy=0;" edge="1" parent="WIyWlLk6GJQsqaUBKTNV-1" source="amC7VP1BXG8_0cPZd53P-28" target="amC7VP1BXG8_0cPZd53P-24">
          <mxGeometry relative="1" as="geometry">
            <Array as="points">
              <mxPoint x="505" y="750" />
            </Array>
          </mxGeometry>
        </mxCell>
        <mxCell id="amC7VP1BXG8_0cPZd53P-33" value="f" style="edgeLabel;html=1;align=center;verticalAlign=middle;resizable=0;points=[];" vertex="1" connectable="0" parent="amC7VP1BXG8_0cPZd53P-30">
          <mxGeometry x="-0.8645" relative="1" as="geometry">
            <mxPoint x="-5" as="offset" />
          </mxGeometry>
        </mxCell>
        <mxCell id="amC7VP1BXG8_0cPZd53P-35" value="f" style="edgeLabel;html=1;align=center;verticalAlign=middle;resizable=0;points=[];" vertex="1" connectable="0" parent="amC7VP1BXG8_0cPZd53P-30">
          <mxGeometry x="0.8106" y="-1" relative="1" as="geometry">
            <mxPoint y="-9" as="offset" />
          </mxGeometry>
        </mxCell>
        <mxCell id="amC7VP1BXG8_0cPZd53P-37" style="edgeStyle=orthogonalEdgeStyle;rounded=0;orthogonalLoop=1;jettySize=auto;html=1;entryX=0;entryY=0.5;entryDx=0;entryDy=0;" edge="1" parent="WIyWlLk6GJQsqaUBKTNV-1" source="amC7VP1BXG8_0cPZd53P-28" target="amC7VP1BXG8_0cPZd53P-34">
          <mxGeometry relative="1" as="geometry" />
        </mxCell>
        <mxCell id="amC7VP1BXG8_0cPZd53P-28" value="&lt;font face=&quot;Lucida Console&quot;&gt;I = &#39;0&lt;/font&gt;" style="shape=hexagon;perimeter=hexagonPerimeter2;whiteSpace=wrap;html=1;fixedSize=1;" vertex="1" parent="WIyWlLk6GJQsqaUBKTNV-1">
          <mxGeometry x="470" y="815" width="70" height="40" as="geometry" />
        </mxCell>
        <mxCell id="amC7VP1BXG8_0cPZd53P-39" style="edgeStyle=orthogonalEdgeStyle;rounded=0;orthogonalLoop=1;jettySize=auto;html=1;entryX=0.5;entryY=0;entryDx=0;entryDy=0;" edge="1" parent="WIyWlLk6GJQsqaUBKTNV-1" source="amC7VP1BXG8_0cPZd53P-34" target="amC7VP1BXG8_0cPZd53P-38">
          <mxGeometry relative="1" as="geometry" />
        </mxCell>
        <mxCell id="amC7VP1BXG8_0cPZd53P-34" value="&lt;div align=&quot;left&quot;&gt;&lt;b&gt;&lt;font face=&quot;Lucida Console&quot;&gt;foo:&lt;/font&gt;&lt;/b&gt;&lt;/div&gt;&lt;div align=&quot;left&quot;&gt;&lt;font face=&quot;bQ9gixf5_bkwfU0nSOTF&quot;&gt;&lt;br&gt;&lt;/font&gt;&lt;/div&gt;" style="rounded=0;whiteSpace=wrap;html=1;align=left;verticalAlign=top;" vertex="1" parent="WIyWlLk6GJQsqaUBKTNV-1">
          <mxGeometry x="600" y="820" width="40" height="30" as="geometry" />
        </mxCell>
        <mxCell id="amC7VP1BXG8_0cPZd53P-43" style="edgeStyle=orthogonalEdgeStyle;rounded=0;orthogonalLoop=1;jettySize=auto;html=1;entryX=0.5;entryY=0;entryDx=0;entryDy=0;" edge="1" parent="WIyWlLk6GJQsqaUBKTNV-1" source="amC7VP1BXG8_0cPZd53P-38" target="amC7VP1BXG8_0cPZd53P-42">
          <mxGeometry relative="1" as="geometry" />
        </mxCell>
        <mxCell id="amC7VP1BXG8_0cPZd53P-38" value="&lt;div align=&quot;left&quot;&gt;&lt;b&gt;&lt;font face=&quot;Lucida Console&quot;&gt;stop:&lt;/font&gt;&lt;/b&gt;&lt;/div&gt;&lt;div align=&quot;left&quot;&gt;&lt;font face=&quot;bQ9gixf5_bkwfU0nSOTF&quot;&gt;&lt;br&gt;&lt;/font&gt;&lt;/div&gt;" style="rounded=0;whiteSpace=wrap;html=1;align=left;verticalAlign=top;" vertex="1" parent="WIyWlLk6GJQsqaUBKTNV-1">
          <mxGeometry x="600" y="890" width="40" height="30" as="geometry" />
        </mxCell>
        <mxCell id="amC7VP1BXG8_0cPZd53P-41" style="edgeStyle=orthogonalEdgeStyle;rounded=0;orthogonalLoop=1;jettySize=auto;html=1;entryX=0.5;entryY=0;entryDx=0;entryDy=0;" edge="1" parent="WIyWlLk6GJQsqaUBKTNV-1" source="amC7VP1BXG8_0cPZd53P-40" target="amC7VP1BXG8_0cPZd53P-0">
          <mxGeometry relative="1" as="geometry" />
        </mxCell>
        <mxCell id="amC7VP1BXG8_0cPZd53P-40" value="entry" style="text;html=1;align=center;verticalAlign=middle;whiteSpace=wrap;rounded=0;fillColor=#d5e8d4;strokeColor=#82b366;" vertex="1" parent="WIyWlLk6GJQsqaUBKTNV-1">
          <mxGeometry x="295" y="160" width="60" height="30" as="geometry" />
        </mxCell>
        <mxCell id="amC7VP1BXG8_0cPZd53P-42" value="exit" style="text;html=1;align=center;verticalAlign=middle;whiteSpace=wrap;rounded=0;fillColor=#f8cecc;strokeColor=#b85450;" vertex="1" parent="WIyWlLk6GJQsqaUBKTNV-1">
          <mxGeometry x="590" y="960" width="60" height="30" as="geometry" />
        </mxCell>
      </root>
    </mxGraphModel>
  </diagram>
</mxfile>
